<?xml version="1.0" ?>
<svg xmlns="http://www.w3.org/2000/svg" width="24" height="24" viewBox="0 0 24 24">
    <path d="M19.43 12.98c.04-.32.07-.64.07-.98s-.03-.66-.07-.98l2.11-1.65c.19-.15.24-.42.11-.64l-2-3.46c-.13-.22-.39-.3-.6-.22l-2.49 1c-.52-.4-1.08-.73-1.68-1.01l-.38-2.65c-.05-.23-.22-.4-.45-.4h-4c-.23 0-.4.17-.45.4l-.38 2.65c-.6.28-1.16.61-1.68 1.01l-2.49-1c-.21-.08-.47 0-.6.22l-2 3.46c-.13.22-.08.49.11.64l2.11 1.65c-.04.32-.07.64-.07.98s.03.66.07.98l-2.11 1.65c-.19.15-.24.42-.11.64l2 3.46c.13.22.39.3.6.22l2.49-1c.52.4 1.08.73 1.68 1.01l.38 2.65c.05.23.22.4.45.4h4c.23 0 .4-.17.45-.4l.38-2.65c.6-.28 1.16-.61 1.68-1.01l2.49 1c.21.08.47 0 .6-.22l2-3.46c.13-.22.08-.49-.11-.64l-2.11-1.65zM12 15.5c-1.93 0-3.5-1.57-3.5-3.5s1.57-3.5 3.5-3.5 3.5 1.57 3.5 3.5-1.57 3.5-3.5 3.5z" fill="#ffffff" stroke="#000000" stroke-width="1"/>
</svg>

